
<svg xmlns="http://www.w3.org/2000/svg" width="28" height="28" viewBox="0 0 28 28" fill="none">
  <g clip-path="url(#clip0_8_1445)">
    <path d="M19.0143 9.66933L20.6523 11.3318L13.8938 17.99C13.4423 18.4415 12.8485 18.6667 12.2523 18.6667C11.6562 18.6667 11.0565 18.4392 10.6003 17.9842L7.35467 14.8388L8.97983 13.1623L12.2383 16.3205L19.0143 9.66933ZM28 14C28 21.7198 21.7198 28 14 28C6.28017 28 0 21.7198 0 14C0 6.28017 6.28017 0 14 0C21.7198 0 28 6.28017 28 14ZM25.6667 14C25.6667 7.567 20.433 2.33333 14 2.33333C7.567 2.33333 2.33333 7.567 2.33333 14C2.33333 20.433 7.567 25.6667 14 25.6667C20.433 25.6667 25.6667 20.433 25.6667 14Z" fill="#5F5F5F"/>
  </g>
  <defs>
    <clipPath id="clip0_8_1445">
      <rect width="28" height="28" fill="white"/>
    </clipPath>
  </defs>
</svg>