<svg width="40" height="41" viewBox="0 0 40 41" fill="none" xmlns="http://www.w3.org/2000/svg">
<g id="arrow-circle-right (2) 1" clip-path="url(#clip0_8_1497)">
<path id="Vector" d="M0 20.5C0 24.4556 1.17298 28.3224 3.37061 31.6114C5.56824 34.9004 8.69181 37.4638 12.3463 38.9776C16.0009 40.4913 20.0222 40.8874 23.9018 40.1157C27.7814 39.344 31.3451 37.4392 34.1421 34.6421C36.9392 31.8451 38.844 28.2814 39.6157 24.4018C40.3874 20.5222 39.9913 16.5009 38.4776 12.8463C36.9638 9.19181 34.4004 6.06824 31.1114 3.87061C27.8224 1.67298 23.9556 0.5 20 0.5C14.6974 0.505735 9.61368 2.61471 5.8642 6.3642C2.11471 10.1137 0.00573514 15.1974 0 20.5ZM29.0233 18.1433C29.6482 18.7684 29.9993 19.6161 29.9993 20.5C29.9993 21.3839 29.6482 22.2316 29.0233 22.8567L21.9517 29.9283L19.595 27.5717L25 22.1667H10V18.8333H25L19.595 13.4283L21.9517 11.0717L29.0233 18.1433Z" fill="black"/>
</g>
<defs>
<clipPath id="clip0_8_1497">
<rect width="40" height="40" fill="white" transform="translate(0 0.5)"/>
</clipPath>
</defs>
</svg>
